
<svg width="288px" height="46px" viewBox="0 0 288 46" version="1.1" xmlns="http://www.w3.org/2000/svg" xmlns:xlink="http://www.w3.org/1999/xlink">
    <g id="Symbols" stroke="none" stroke-width="1" fill="none" fill-rule="evenodd">
        <g id="Bars-/-Navigation-Bar-(Large-Title)" transform="translate(-44.000000, -14.000000)" fill-rule="nonzero">
            <g id="EVR_logo" transform="translate(44.000000, 14.000000)">
                <path d="M67.97,0.04 C74.8,0.04 79.97,6.49 78.97,13.78 C77.91,21.33 72.21,27.69 63.14,27.69 L18.89,27.69 C15.2604353,27.5450627 11.7802886,26.2057335 8.99,23.88 C6.82991723,21.8415454 4.77397454,19.6954883 2.83,17.45 L65.21,17.45 C67.1775939,17.2986339 68.7513893,15.7543735 68.94,13.79 C69.0926929,12.952639 68.882499,12.0898326 68.3617825,11.4165251 C67.841066,10.7432177 67.0588493,10.3227973 66.21,10.26 L21.9,10.26 C18.270857,10.1216151 14.7896804,8.78540596 12,6.46 C9.65,4.36 5.84,0.04 5.84,0.04 L67.97,0.04 Z" id="Path" fill="#AD002D"></path>
                <path d="M48.84,29.69 C51.5394514,29.6058833 54.2415205,29.6927236 56.93,29.95 C63.6,30.89 66.32,33.51 66.32,33.51 L67.15,34.16 L78.2,45.33 C75.0477955,45.412124 71.8934531,45.3286758 68.75,45.08 C63.34,44.34 61.27,41.97 61.27,41.97 L48.84,29.69 Z" id="Path" fill="#AD002D"></path>
                <path d="M0,35.11 L44.84,35.11 C48.4932991,35.1445935 52.0103427,36.501675 54.74,38.93 C56.9016723,40.9633491 58.9577029,43.1061601 60.9,45.35 L16.06,45.35 C12.4301283,45.2065502 8.94951918,43.8670431 6.16,41.54 C3.99991723,39.5015454 1.94397454,37.3554883 0,35.11" id="Path" fill="#AD002D"></path>
                <polygon id="Path" fill="#231F20" points="111.19 14.97 98.98 14.97 95.71 30.39 108.3 30.39 108.84 27.86 99.7 27.86 100.6 23.64 109.03 23.64 109.57 21.12 101.13 21.12 101.91 17.49 110.66 17.49"></polygon>
                <polygon id="Path" fill="#231F20" points="125.94 14.97 113.73 14.97 110.46 30.39 123.05 30.39 123.59 27.86 114.45 27.86 115.35 23.64 123.78 23.64 124.32 21.12 115.89 21.12 116.66 17.49 125.41 17.49"></polygon>
                <path d="M125.48,25.56 C124.78,28.87 127.17,30.79 131.63,30.79 C136.86,30.79 139.99,28.91 140.63,25.73 C140.97,24.13 140.63,21.97 137.1,21.46 L132.84,20.84 C131.51,20.65 130.74,20.16 131,18.96 C131.3,17.55 133,16.85 134.46,16.85 C136.85,16.85 138.08,17.58 137.78,19.58 L141.24,19.58 C141.8,16.46 139.77,14.58 135.24,14.58 C131.65,14.58 128.02,16 127.24,19.58 C126.81,21.58 127.79,23.34 131.75,23.89 L134.84,24.32 C136.5,24.56 137.18,25.07 136.94,26.18 C136.7,27.29 135.4,28.53 132.53,28.53 C129.66,28.53 128.69,27.41 128.89,25.53 L125.48,25.56 Z" id="Path" fill="#231F20"></path>
                <polygon id="Path" fill="#231F20" points="143.28 14.97 142.74 17.49 148.62 17.49 145.87 30.39 149.33 30.39 152.07 17.49 157.95 17.49 158.48 14.97"></polygon>
                <polygon id="Path" fill="#231F20" points="156.65 30.39 160.11 30.39 163.39 14.97 159.93 14.97"></polygon>
                <path d="M176.38,17.49 L181.01,17.49 C182.85,17.49 184.46,17.74 184.06,19.6 C183.66,21.46 181.95,21.91 179.92,21.91 L175.44,21.91 L176.38,17.49 Z M170.18,30.39 L173.64,30.39 L174.93,24.3 L178.58,24.3 C181.95,24.3 182.5,24.92 182.01,27.95 C181.845302,28.7522058 181.784802,29.5723101 181.83,30.39 L185.55,30.39 C185.430315,29.5008342 185.464139,28.5977221 185.65,27.72 C186.08,24.86 186.15,23.28 182.65,23.13 L182.65,23.13 C185.06,22.96 187.17,21.85 187.74,19.13 C188.39,16.08 186.09,14.99 182.69,14.99 L173.44,14.99 L170.18,30.39 Z" id="Shape" fill="#231F20"></path>
                <path d="M186.23,30.39 L189.94,30.39 L192.3,26.93 L201.18,26.93 L202.18,30.39 L206.28,30.39 L201.68,14.97 L197.32,14.97 L186.23,30.39 Z M194.07,24.39 L198.7,17.68 L200.48,24.39 L194.07,24.39 Z" id="Shape" fill="#231F20"></path>
                <path d="M207.84,24.86 C206.98,28.86 210.06,30.79 213.79,30.79 C220.58,30.79 222.7,27.79 223.45,24.24 L225.45,14.97 L221.99,14.97 L219.99,24.3 C219.610301,26.799271 217.371144,28.5853692 214.85,28.4 C212.2,28.4 210.85,26.95 211.41,24.4 L213.41,14.98 L209.95,14.98 L207.84,24.86 Z" id="Path" fill="#231F20"></path>
                <path d="M230.9,17.49 L234.29,17.49 C237.29,17.49 239.37,19.03 238.61,22.59 C238.050764,25.7215323 235.279529,27.9691697 232.1,27.87 L228.69,27.87 L230.9,17.49 Z M224.7,30.39 L232.04,30.39 C238.89,30.39 241.53,25.73 242.14,22.85 C243.14,18.32 241.21,14.97 235.3,14.97 L227.97,14.97 L224.7,30.39 Z" id="Shape" fill="#231F20"></path>
                <polygon id="Path" fill="#231F20" points="244.34 14.97 243.81 17.49 249.69 17.49 246.94 30.39 250.4 30.39 253.14 17.49 259.01 17.49 259.55 14.97"></polygon>
                <polygon id="Path" fill="#231F20" points="272.83 14.97 260.62 14.97 257.34 30.39 269.94 30.39 270.47 27.86 261.33 27.86 262.23 23.64 270.67 23.64 271.2 21.12 262.77 21.12 263.54 17.49 272.29 17.49"></polygon>
                <polygon id="Path" fill="#231F20" points="275.37 14.97 272.09 30.39 284.69 30.39 285.22 27.86 276.08 27.86 276.98 23.64 285.42 23.64 285.95 21.12 277.52 21.12 278.29 17.49 287.05 17.49 287.58 14.97"></polygon>
            </g>
        </g>
    </g>
</svg>