
<svg width="18px" height="24px" viewBox="0 0 18 24" version="1.1" xmlns="http://www.w3.org/2000/svg" xmlns:xlink="http://www.w3.org/1999/xlink">
    <g id="Page-1" stroke="none" stroke-width="1" fill="none" fill-rule="evenodd">
        <g id="Vali-Rong-ja-Vedur" transform="translate(-253.000000, -292.000000)">
            <rect fill="#FBFBFB" x="0" y="0" width="768" height="1024"></rect>
            <g id="Rong" transform="translate(250.000000, 292.000000)" fill="#010002">
                <g id="8661" transform="translate(3.000000, 0.000000)">
                    <path d="M13.7596741,18.4276986 L13.7107943,18.3299389 C13.7107943,18.297336 13.7189572,18.2810591 13.7352342,18.2810591 C13.7515112,18.2810591 13.7596741,18.2647821 13.7596741,18.2321792 C14.2810754,18.0366599 14.7535479,17.7759837 15.1771894,17.4501018 C15.600831,17.12422 15.89411,16.6517475 16.0570265,16.0325866 L16.0814664,15.8615071 C16.0977434,15.7474705 16.1221833,15.6415479 16.1547862,15.5437882 L16.1547862,2.78615071 C16.1547862,2.46026884 16.0651894,2.13443585 15.885947,1.80855397 C15.706558,1.4826721 15.4784847,1.18939308 15.2016293,0.928716904 C14.9246273,0.668040733 14.6150713,0.448081466 14.2729124,0.268839104 C13.9307536,0.0895967413 13.6130346,0 13.3197556,0 L4.17922607,0 C3.88594705,0 3.56822811,0.0814826884 3.22606925,0.244399185 C2.88391039,0.407315682 2.57435438,0.619160896 2.29735234,0.879837067 C2.02035031,1.14051324 1.79222811,1.43379226 1.61303462,1.75967413 C1.43379226,2.08555601 1.34419552,2.39511202 1.34419552,2.68839104 L1.34419552,15.6415479 C1.34419552,15.8696701 1.39307536,16.0977434 1.49083503,16.3258656 C1.5885947,16.5539878 1.71895723,16.773947 1.88187373,16.9857434 C2.04479022,17.1975397 2.22403259,17.3930591 2.41955193,17.5723014 C2.61507128,17.7515438 2.81059063,17.8900204 3.00610998,17.98778 C3.10386965,18.0203829 3.2586721,18.0774257 3.47046843,18.1588595 C3.68226477,18.2403422 3.78818737,18.2973849 3.78818737,18.3299389 L0.0244399185,24 L2.22403259,24 L4.96130346,20.0407332 L12.4887984,20.0407332 L15.2260692,24 L17.4256619,24 L13.7596741,18.4276986 Z M6.57433809,1.12423625 C6.57433809,1.02647658 6.61505499,0.928716904 6.69653768,0.83095723 C6.77802037,0.733197556 6.86761711,0.684317719 6.96537678,0.684317719 L10.4847251,0.684317719 C10.5173279,0.684317719 10.5824847,0.71692057 10.6802444,0.782077393 C10.7780041,0.847234216 10.8268839,0.912439919 10.8268839,0.977596741 L10.8268839,2.34623218 C10.8268839,2.44399185 10.786167,2.52547454 10.7046843,2.59063136 C10.6232016,2.65578819 10.5498819,2.68839104 10.4847251,2.68839104 L6.96537678,2.68839104 C6.90021996,2.65578819 6.85134012,2.62323422 6.81873727,2.59063136 C6.75358045,2.55802851 6.70470061,2.50914868 6.67209776,2.44399185 C6.60694094,2.37863951 6.57433809,2.31348269 6.57433809,2.24847251 L6.57433809,1.12423625 Z M3.05498982,4.83910387 C3.05498982,4.67618737 3.08759267,4.49694501 3.15274949,4.30142566 C3.25050916,4.13821589 3.36454582,3.97525051 3.49490835,3.81262729 C3.59266802,3.68226477 3.7311446,3.56822811 3.91038697,3.47046843 C4.08962933,3.37270876 4.27698574,3.32382892 4.47250509,3.32382892 L12.9775967,3.32382892 C13.1079593,3.32382892 13.2708758,3.37270876 13.4663951,3.47046843 C13.5967576,3.53562525 13.7433971,3.63338493 13.9063136,3.76374745 C14.0366762,3.86150713 14.1344358,3.99186965 14.1995927,4.15478615 C14.2973523,4.28514868 14.3462322,4.44806517 14.3462322,4.64358452 L14.3462322,7.52749491 C14.3462322,7.69041141 14.2973523,7.84521385 14.1995927,7.99185336 C14.101833,8.13849287 13.9877963,8.27696945 13.8574338,8.40733198 C13.6945173,8.5376945 13.5315519,8.63545418 13.3686354,8.700611 C13.2382729,8.76576782 13.0753564,8.79837067 12.8798371,8.79837067 L4.52138493,8.79837067 C4.48878208,8.79837067 4.43990224,8.79020774 4.37474542,8.77393075 C4.30958859,8.75765377 4.26070876,8.73321385 4.22810591,8.700611 C3.90222403,8.66800815 3.62527088,8.51325458 3.39714868,8.23625255 C3.16902648,7.95925051 3.05498982,7.65785743 3.05498982,7.33197556 L3.05498982,4.83910387 Z M5.57230143,16.1303462 C5.29529939,16.4236253 4.94502648,16.5702648 4.52138493,16.5702648 C4.09774338,16.5702648 3.75558452,16.4236253 3.49490835,16.1303462 C3.23423218,15.8370672 3.10386965,15.4786314 3.10386965,15.0549898 C3.10386965,14.6639511 3.24234623,14.3299552 3.51934827,14.0529532 C3.79635031,13.7759511 4.13034623,13.6374745 4.52138493,13.6374745 C4.94502648,13.6374745 5.29534827,13.7678371 5.57230143,14.0285132 C5.84930346,14.2891894 5.98778004,14.6313483 5.98778004,15.0549898 C5.98778004,15.4786314 5.84930346,15.8370672 5.57230143,16.1303462 Z M11.8289206,16.1303462 C11.5519185,15.8370672 11.413442,15.4786314 11.413442,15.0549898 C11.413442,14.6313483 11.5600815,14.2891894 11.8533605,14.0285132 C12.1466395,13.7678371 12.4887984,13.6374745 12.8798371,13.6374745 C13.3034786,13.6374745 13.6456375,13.7759511 13.9063136,14.0529532 C14.1669898,14.3299552 14.2973523,14.6639511 14.2973523,15.0549898 C14.2973523,15.4786314 14.1669898,15.8370672 13.9063136,16.1303462 C13.6456375,16.4236253 13.3034786,16.5702648 12.8798371,16.5702648 C12.4561466,16.5702648 12.1058248,16.4236253 11.8289206,16.1303462 Z" id="Shape" fill-rule="nonzero"></path>
                </g>
            </g>
        </g>
    </g>
</svg>