
<svg width="23px" height="21px" viewBox="0 0 23 21" version="1.1" xmlns="http://www.w3.org/2000/svg" xmlns:xlink="http://www.w3.org/1999/xlink">
    <g id="Page-1" stroke="none" stroke-width="1" fill="none" fill-rule="evenodd">
        <g id="Vali-Rong-ja-Vedur" transform="translate(-251.000000, -326.000000)" fill="#000000" fill-rule="nonzero">
            <g id="910885" transform="translate(251.000000, 326.000000)">
                <path d="M18.6640625,4.34482759 L18.6640625,5.68434189e-14 L16.4960938,5.68434189e-14 L16.4960938,4.34482759 L6.2265625,4.34482759 L6.2265625,5.68434189e-14 L4.05859375,5.68434189e-14 L4.05859375,4.34482759 L-2.27373675e-13,4.34482759 L-2.27373675e-13,21 L23,21 L23,4.34482759 L18.6640625,4.34482759 Z M20.8320313,18.8275862 L2.16796875,18.8275862 L2.16796875,6.51724138 L20.8320313,6.51724138 L20.8320313,18.8275862 Z" id="Shape"></path>
                <polygon id="Rectangle" points="2.27318164e-13 10 9 10 9 12 2.27318164e-13 12"></polygon>
                <polygon id="Rectangle" points="-2.83106871e-14 14 6 14 6 16 -2.83106871e-14 16"></polygon>
                <polygon id="Path" points="12.737948 13.9126493 12.737948 16 19 16 19 9.73794803 16.9126493 9.73794803 16.9126493 12.4366837 13.4758961 9 12 10.4758961 15.4366837 13.9126493"></polygon>
            </g>
        </g>
    </g>
</svg>